<svg width="71" height="70" viewBox="0 0 71 70" fill="none" xmlns="http://www.w3.org/2000/svg">
<path d="M57.9861 31.4702C59.4798 30.4408 61.025 29.3774 61.025 27.7581C61.025 26.1388 59.4798 25.0744 57.9861 24.045C57.1791 23.4891 56.0745 22.7284 55.9417 22.2332C55.7976 21.6887 56.3648 20.4894 56.8208 19.5259C57.5816 17.92 58.368 16.2585 57.5847 14.9038C56.79 13.5306 54.9411 13.3824 53.1541 13.2393C52.1041 13.1559 50.7967 13.0509 50.4148 12.669C50.0329 12.2871 49.9279 10.9797 49.8445 9.92869C49.7004 8.14163 49.5532 6.29384 48.18 5.49913C46.8252 4.71575 45.1648 5.50222 43.5589 6.26193C42.5954 6.71796 41.3961 7.28619 40.8516 7.14104C40.3554 7.00928 39.5957 5.90369 39.0398 5.09766C38.0104 3.60399 36.945 2.05884 35.3257 2.05884C33.7064 2.05884 32.642 3.60296 31.6136 5.09766C31.0577 5.90472 30.297 7.00928 29.8019 7.14104C29.2573 7.28722 28.0601 6.71899 27.0955 6.26296C25.4886 5.50325 23.8282 4.71678 22.4735 5.50119C21.1023 6.2959 20.9551 8.14472 20.812 9.93075C20.7297 10.9808 20.6247 12.2881 20.2427 12.671C19.8619 13.0519 18.5545 13.158 17.5045 13.2413C15.7175 13.3855 13.8697 13.5337 13.076 14.9059C12.2926 16.2616 13.0791 17.9221 13.8398 19.528C14.2958 20.4905 14.8641 21.6897 14.7189 22.2332C14.5872 22.7294 13.4816 23.4891 12.6755 24.045C11.1819 25.0744 9.63672 26.1388 9.63672 27.7581C9.63672 29.3763 11.1819 30.4408 12.6755 31.4702C13.4826 32.026 14.5872 32.7868 14.7189 33.2819C14.8641 33.8244 14.2969 35.0237 13.8398 35.9883C13.078 37.5941 12.2926 39.2535 13.075 40.6083C13.8686 41.9815 15.7175 42.1297 17.5045 42.2728C17.7958 42.2965 18.1057 42.3222 18.4114 42.3541L10.3882 61.4209C10.2355 61.779 10.1872 62.173 10.249 62.5573C10.3107 62.9417 10.48 63.3007 10.7372 63.593C10.992 63.8876 11.3251 64.104 11.6978 64.2173C12.0705 64.3306 12.4676 64.3362 12.8433 64.2332L17.2554 63.0566L19.8629 67.0075C20.2973 67.6663 21.0488 68.0019 21.7848 67.9319C22.159 67.8983 22.517 67.7637 22.8207 67.5425C23.1243 67.3213 23.3623 67.0219 23.5091 66.676L30.8622 49.3675C32.1417 51.031 33.2988 53.4574 35.3267 53.4574C37.3577 53.4574 38.5148 51.0238 39.7985 49.3603L47.1547 66.676C47.3013 67.0221 47.539 67.3218 47.8426 67.5433C48.1462 67.7648 48.5042 67.8998 48.8785 67.9338C49.2527 67.9678 49.6292 67.8996 49.9678 67.7365C50.3063 67.5734 50.5942 67.3214 50.8008 67.0075L53.4279 63.0484L57.8204 64.2322C58.1959 64.3354 58.593 64.3302 58.9656 64.2172C59.3383 64.1043 59.6715 63.8882 59.9266 63.594C60.1839 63.3019 60.3534 62.9429 60.4153 62.5585C60.4772 62.1741 60.4291 61.7801 60.2766 61.4219L52.2523 42.3572C52.556 42.3263 52.8648 42.2996 53.1551 42.2759C54.9422 42.1338 56.791 41.9856 57.5847 40.6124C58.368 39.2577 57.5826 37.5962 56.8219 35.9903C56.3658 35.0258 55.7976 33.8265 55.9427 33.284C56.0755 32.7878 57.1791 32.026 57.9861 31.4702ZM21.58 65.8731L18.9735 61.9222C18.7333 61.5573 18.3841 61.2776 17.9756 61.1229C17.567 60.9682 17.1201 60.9464 16.6985 61.0606L12.2844 62.2197L20.3652 43.0191C20.5258 43.3135 20.6185 43.82 20.6658 44.1494C20.6813 44.2905 20.7173 44.4068 20.811 45.5875C20.953 47.3725 21.0992 49.2193 22.4725 50.0191C23.8292 50.7984 25.4886 50.015 27.0925 49.2563C27.7122 48.963 28.4297 48.6233 29.0082 48.4575L21.58 65.8731ZM53.9632 61.0606C53.5415 60.9467 53.0947 60.9687 52.6863 61.1233C52.2778 61.278 51.9286 61.5576 51.6882 61.9222L49.0488 65.87L41.6525 48.4596C42.3175 48.6531 43.1379 49.0587 43.9666 49.4447C45.7722 50.2888 47.7177 50.9847 48.9232 49.3315C48.9469 49.2996 48.9767 49.2728 48.9994 49.2388L49.0138 49.2121C49.6263 48.2733 49.7375 46.9144 49.8435 45.5865C49.8733 45.2169 49.9052 44.8175 49.9516 44.4366L49.9619 44.345C49.9763 44.2359 49.9927 44.1288 50.0092 44.0249C50.0339 43.8705 50.0607 43.7212 50.0936 43.5853C50.107 43.5256 50.1245 43.4731 50.1389 43.4196C50.1801 43.2765 50.2254 43.1447 50.2789 43.0418L50.2944 43.0171L58.367 62.2465L53.9632 61.0606ZM54.9597 36.8705C55.392 37.7835 56.0447 39.1619 55.8017 39.5809C55.5485 40.0194 54.0085 40.143 52.9894 40.2243C52.1638 40.2902 51.3269 40.3622 50.5836 40.5537C48.1727 41.054 47.9658 43.1941 47.7878 45.4249C47.726 46.1887 47.6426 47.2449 47.4213 47.8327C47.1145 48.6397 46.398 48.3062 44.8169 47.5702C44.8129 47.5682 44.8087 47.5665 44.8045 47.565L44.4401 47.3931C43.6269 47.0081 42.7972 46.621 41.9952 46.4255C41.9366 46.4121 41.8758 46.3925 41.8172 46.3802C41.7945 46.376 41.7729 46.375 41.7502 46.3699C40.9689 46.2196 40.2432 46.2813 39.5761 46.726C38.7145 47.2716 38.0186 48.2702 37.3433 49.2502C36.7535 50.1046 35.863 51.3985 35.3257 51.3985C34.7883 51.3985 33.8979 50.1056 33.3091 49.2502C31.1761 46.1516 30.1776 45.5597 26.7414 47.1471L26.2144 47.391C25.3023 47.8234 23.9239 48.474 23.505 48.2321C23.0675 47.9788 22.946 46.4388 22.8647 45.4208C22.5301 41.2166 21.7622 40.5506 17.6692 40.2212C16.6501 40.1388 15.1111 40.0153 14.8579 39.5778C14.615 39.1588 15.2676 37.7815 15.7 36.8705C16.3629 35.4705 17.0485 34.0241 16.7088 32.7497C16.3794 31.5216 15.0905 30.6332 13.8439 29.7747C12.9885 29.1859 11.6955 28.2944 11.6955 27.7571C11.6955 27.2208 12.9885 26.3303 13.8429 25.7415C15.0905 24.8819 16.3794 23.9946 16.7088 22.7644C17.0485 21.4921 16.3629 20.0457 15.7 18.6468C15.2676 17.7347 14.615 16.3563 14.8579 15.9374C15.1111 15.4999 16.6511 15.3753 17.6692 15.294C19.2 15.1705 20.7822 15.0438 21.6994 14.1266C22.6176 13.2074 22.7432 11.6252 22.8647 10.0944C22.947 9.07531 23.0685 7.53634 23.506 7.28413C23.9239 7.04222 25.3023 7.69281 26.2154 8.12413C27.6144 8.78604 29.0607 9.4706 30.333 9.1309C31.5622 8.80149 32.4505 7.51266 33.3091 6.26604C33.8979 5.4106 34.7883 4.11766 35.3257 4.11766C35.863 4.11766 36.7545 5.4106 37.3433 6.26604C38.2029 7.51163 39.0902 8.80149 40.3194 9.12987C41.5927 9.46957 43.0411 8.78501 44.4401 8.1231C45.3511 7.69075 46.7305 7.03913 47.1485 7.28104C47.587 7.53428 47.7105 9.07428 47.7919 10.0944C47.9154 11.6241 48.041 13.2063 48.9592 14.1246C49.8775 15.0428 51.4597 15.1694 52.9894 15.2919C54.0085 15.3743 55.5485 15.4978 55.8017 15.9343C56.0447 16.3543 55.392 17.7327 54.9607 18.6447C54.2977 20.0437 53.6122 21.49 53.9529 22.7634C54.2823 23.9935 55.5711 24.8809 56.8177 25.7405C57.6732 26.3293 58.9661 27.2197 58.9661 27.7581C58.9661 28.2955 57.6732 29.1859 56.8177 29.7757C55.5711 30.6343 54.2813 31.5227 53.9529 32.7518C53.6132 34.0252 54.2977 35.4715 54.9597 36.8705Z" fill="white"/>
<path d="M35.3272 12.5208C26.9251 12.5208 20.0898 19.356 20.0898 27.7581C20.0898 36.1581 26.9251 42.9944 35.3272 42.9944C43.7293 42.9944 50.5645 36.1591 50.5645 27.7581C50.5645 19.356 43.7293 12.5208 35.3272 12.5208ZM35.3272 40.9356C28.0595 40.9356 22.1487 35.0237 22.1487 27.7581C22.1487 20.4905 28.0606 14.5796 35.3272 14.5796C42.5938 14.5796 48.5057 20.4915 48.5057 27.7581C48.5057 35.0237 42.5938 40.9356 35.3272 40.9356Z" fill="white"/>
<path d="M42.3332 24.4095H38.2753L37.0122 20.542C36.8964 20.186 36.6707 19.8758 36.3676 19.6561C36.0644 19.4363 35.6994 19.3184 35.325 19.3191C34.5529 19.3191 33.8756 19.8132 33.6368 20.5451L32.383 24.4095H28.3271C27.9522 24.4087 27.5868 24.5269 27.2834 24.747C26.98 24.9672 26.7543 25.2779 26.6388 25.6345C26.522 25.9911 26.5214 26.3756 26.6372 26.7325C26.7531 27.0894 26.9793 27.4003 27.2832 27.6203L30.565 30.0064L29.3122 33.8667C29.1959 34.2231 29.1958 34.6072 29.3118 34.9637C29.4278 35.3202 29.6539 35.6307 29.9577 35.8504C30.5815 36.3034 31.4205 36.3034 32.0443 35.8504L35.324 33.4653L38.6191 35.8556C38.9222 36.0764 39.2876 36.1953 39.6626 36.1951C40.0376 36.1949 40.4029 36.0757 40.7057 35.8545C41.0093 35.6347 41.2352 35.3241 41.351 34.9677C41.4668 34.6112 41.4665 34.2271 41.3502 33.8709L40.0953 30.0064L43.3771 27.6192C43.6804 27.3992 43.9062 27.0886 44.0218 26.7322C44.1374 26.3757 44.1369 25.9917 44.0205 25.6356C43.9052 25.2789 43.6797 24.9681 43.3765 24.7478C43.0733 24.5274 42.708 24.409 42.3332 24.4095ZM38.7169 28.4634C38.4138 28.6833 38.1882 28.9937 38.0726 29.35C37.957 29.7062 37.9573 30.09 38.0735 30.446L39.1235 33.6773L36.3647 31.6772C36.0617 31.4568 35.6965 31.3381 35.3218 31.3383C34.947 31.3385 34.582 31.4575 34.2791 31.6782L31.5409 33.6701L32.5868 30.446C32.703 30.0897 32.7032 29.7057 32.5874 29.3493C32.4716 28.9928 32.2458 28.6823 31.9424 28.4623L29.2 26.4684H32.5888C33.3609 26.4684 34.0403 25.9742 34.2771 25.2413L35.3271 22.0089L36.3822 25.2444C36.4979 25.6008 36.7237 25.9113 37.027 26.1313C37.3304 26.3512 37.6957 26.4692 38.0704 26.4684H41.4603L38.7169 28.4634Z" fill="white"/>
</svg>
