<svg width="71" height="70" viewBox="0 0 71 70" fill="none" xmlns="http://www.w3.org/2000/svg">
<path d="M14.8828 28.4375C13.8012 28.4375 12.7439 28.1168 11.8446 27.5159C10.9452 26.9149 10.2443 26.0608 9.83036 25.0616C9.41644 24.0623 9.30814 22.9627 9.51916 21.9019C9.73017 20.841 10.251 19.8666 11.0158 19.1018C11.7807 18.3369 12.7551 17.8161 13.8159 17.6051C14.8768 17.3941 15.9763 17.5024 16.9756 17.9163C17.9749 18.3302 18.829 19.0311 19.4299 19.9305C20.0308 20.8298 20.3516 21.8871 20.3516 22.9688C20.3498 24.4186 19.7731 25.8086 18.7479 26.8338C17.7227 27.859 16.3327 28.4358 14.8828 28.4375ZM14.8828 19.6875C14.2339 19.6875 13.5995 19.8799 13.0599 20.2405C12.5203 20.601 12.0997 21.1135 11.8513 21.7131C11.603 22.3126 11.538 22.9724 11.6646 23.6089C11.7912 24.2454 12.1037 24.8301 12.5626 25.2889C13.0215 25.7478 13.6062 26.0603 14.2427 26.187C14.8792 26.3136 15.5389 26.2486 16.1385 26.0002C16.7381 25.7519 17.2505 25.3313 17.6111 24.7917C17.9716 24.2521 18.1641 23.6177 18.1641 22.9688C18.1641 22.0985 17.8184 21.2639 17.203 20.6486C16.5877 20.0332 15.7531 19.6875 14.8828 19.6875ZM11.6016 51.4063H2.85158C2.5615 51.4063 2.2833 51.291 2.07818 51.0859C1.87306 50.8808 1.75783 50.6026 1.75783 50.3125C1.75459 47.283 2.3327 44.2811 3.46079 41.4695L7.03408 32.5347C7.51217 31.3399 8.39348 30.3501 9.52506 29.7372C10.6567 29.1242 11.9671 28.9268 13.2291 29.1791C13.9647 29.3273 14.6625 29.6237 15.2798 30.0504C15.8972 30.4771 16.4212 31.025 16.8199 31.6608L21.0078 38.3644L26.1484 39.0983C27.0098 39.2202 27.7928 39.6642 28.3396 40.3407C28.8865 41.0173 29.1564 41.8761 29.0949 42.7438C29.0334 43.6115 28.6451 44.4237 28.0084 45.0164C27.3717 45.6091 26.5338 45.9383 25.6639 45.9375H17.0703C16.8671 45.9376 16.6678 45.8811 16.4949 45.7742C16.322 45.6674 16.1823 45.5145 16.0914 45.3327L14.278 41.7058L12.6767 50.5083C12.6309 50.7601 12.4982 50.9879 12.3018 51.152C12.1053 51.3161 11.8575 51.406 11.6016 51.4063ZM3.97267 49.2188H10.6883L12.7139 38.0855C12.7551 37.8597 12.8663 37.6527 13.0316 37.4936C13.197 37.3345 13.4082 37.2315 13.6354 37.1991C13.8625 37.1667 14.0941 37.2065 14.2974 37.313C14.5007 37.4195 14.6653 37.5872 14.768 37.7923L17.7463 43.75H25.6639C25.9793 43.7494 26.2828 43.6295 26.5135 43.4144C26.7442 43.1993 26.8849 42.9049 26.9075 42.5903C26.93 42.2757 26.8328 41.9642 26.6352 41.7184C26.4376 41.4726 26.1543 41.3106 25.8422 41.265L20.1963 40.4578C20.0387 40.4352 19.888 40.3785 19.7546 40.2916C19.6212 40.2047 19.5084 40.0897 19.4241 39.9547L14.9649 32.8202C14.6397 32.3002 14.1769 31.8804 13.6278 31.6073C13.0786 31.3343 12.4646 31.2187 11.8537 31.2732C11.2429 31.3278 10.6591 31.5505 10.1671 31.9166C9.67507 32.2827 9.29405 32.7779 9.06626 33.3473L5.49189 42.2811C4.60462 44.4935 4.09122 46.838 3.97267 49.2188ZM56.4453 28.4375C55.3637 28.4375 54.3064 28.1168 53.4071 27.5159C52.5077 26.9149 51.8068 26.0608 51.3929 25.0616C50.9789 24.0623 50.8706 22.9627 51.0817 21.9019C51.2927 20.841 51.8135 19.8666 52.5783 19.1018C53.3432 18.3369 54.3176 17.8161 55.3784 17.6051C56.4393 17.3941 57.5388 17.5024 58.5381 17.9163C59.5374 18.3302 60.3915 19.0311 60.9924 19.9305C61.5933 20.8298 61.9141 21.8871 61.9141 22.9688C61.9123 24.4186 61.3356 25.8086 60.3104 26.8338C59.2852 27.859 57.8952 28.4358 56.4453 28.4375ZM56.4453 19.6875C55.7964 19.6875 55.162 19.8799 54.6224 20.2405C54.0828 20.601 53.6622 21.1135 53.4138 21.7131C53.1655 22.3126 53.1005 22.9724 53.2271 23.6089C53.3537 24.2454 53.6662 24.8301 54.1251 25.2889C54.584 25.7478 55.1687 26.0603 55.8052 26.187C56.4417 26.3136 57.1014 26.2486 57.701 26.0002C58.3006 25.7519 58.813 25.3313 59.1736 24.7917C59.5341 24.2521 59.7266 23.6177 59.7266 22.9688C59.7266 22.0985 59.3809 21.2639 58.7655 20.6486C58.1502 20.0332 57.3156 19.6875 56.4453 19.6875ZM68.4766 51.4063H59.7266C59.4706 51.406 59.2228 51.3161 59.0264 51.152C58.8299 50.9879 58.6972 50.7601 58.6514 50.5083L57.0502 41.7058L55.2422 45.3327C55.1509 45.5153 55.0104 45.6688 54.8364 45.7757C54.6624 45.8826 54.462 45.9386 54.2578 45.9375H45.6642C44.794 45.9391 43.9556 45.6105 43.3183 45.0181C42.6809 44.4256 42.292 43.6134 42.2301 42.7454C42.1682 41.8774 42.4378 41.0183 42.9847 40.3414C43.5315 39.6645 44.3148 39.2202 45.1764 39.0983L50.317 38.3644L54.5072 31.6608C54.9059 31.025 55.4299 30.4771 56.0472 30.0504C56.6646 29.6237 57.3623 29.3273 58.098 29.1791C59.36 28.9261 60.6707 29.1233 61.8025 29.7363C62.9342 30.3493 63.8154 31.3395 64.293 32.5347L67.8663 41.4695C68.9947 44.281 69.5732 47.283 69.5703 50.3125C69.5703 50.6026 69.4551 50.8808 69.25 51.0859C69.0449 51.291 68.7667 51.4063 68.4766 51.4063ZM60.6399 49.2188H67.3555C67.2369 46.838 66.7235 44.4935 65.8363 42.2811L62.2619 33.3473C62.0343 32.7779 61.6534 32.2826 61.1615 31.9165C60.6695 31.5503 60.0858 31.3276 59.475 31.273C58.8642 31.2184 58.2502 31.3341 57.7011 31.6072C57.1521 31.8803 56.6894 32.3001 56.3644 32.8202L51.9041 39.9547C51.8197 40.0897 51.7069 40.2047 51.5736 40.2916C51.4402 40.3785 51.2895 40.4352 51.1319 40.4578L45.486 41.265C45.1739 41.3106 44.8906 41.4726 44.693 41.7184C44.4954 41.9642 44.3981 42.2757 44.4207 42.5903C44.4432 42.9049 44.584 43.1993 44.8147 43.4144C45.0453 43.6295 45.3488 43.7494 45.6642 43.75H53.5819L56.5602 37.7923C56.6629 37.5872 56.8275 37.4195 57.0308 37.313C57.234 37.2065 57.4656 37.1667 57.6928 37.1991C57.9199 37.2315 58.1311 37.3345 58.2965 37.4936C58.4619 37.6527 58.573 37.8597 58.6142 38.0855L60.6399 49.2188Z" fill="white"/>
<path d="M49.4825 35.3981L48.042 31.7188H23.2861L22.2744 34.3044L20.2422 33.5081L21.5252 30.2269C21.605 30.0227 21.7443 29.8471 21.9251 29.7231C22.1059 29.5991 22.3198 29.5322 22.5391 29.5313H48.7891C49.0093 29.5311 49.2244 29.5974 49.4062 29.7216C49.5881 29.8457 49.7283 30.0218 49.8084 30.2269L51.5202 34.6019L49.4825 35.3981ZM35.6641 55.7812C33.9241 55.7795 32.2559 55.0876 31.0256 53.8572C29.7953 52.6269 29.1033 50.9587 29.1016 49.2188V48.125C29.1016 46.3845 29.793 44.7153 31.0237 43.4846C32.2544 42.2539 33.9236 41.5625 35.6641 41.5625C37.4045 41.5625 39.0737 42.2539 40.3045 43.4846C41.5352 44.7153 42.2266 46.3845 42.2266 48.125V49.2188C42.2248 50.9587 41.5329 52.6269 40.3025 53.8572C39.0722 55.0876 37.404 55.7795 35.6641 55.7812ZM35.6641 43.75C34.5037 43.75 33.3909 44.2109 32.5705 45.0314C31.75 45.8519 31.2891 46.9647 31.2891 48.125V49.2188C31.2891 50.3791 31.75 51.4919 32.5705 52.3123C33.3909 53.1328 34.5037 53.5938 35.6641 53.5938C36.8244 53.5938 37.9372 53.1328 38.7577 52.3123C39.5781 51.4919 40.0391 50.3791 40.0391 49.2188V48.125C40.0391 46.9647 39.5781 45.8519 38.7577 45.0314C37.9372 44.2109 36.8244 43.75 35.6641 43.75ZM47.6953 67.8125H45.5078V62.3438C45.5078 61.4735 45.1621 60.6389 44.5468 60.0236C43.9314 59.4082 43.0968 59.0625 42.2266 59.0625H29.1016C28.2313 59.0625 27.3967 59.4082 26.7814 60.0236C26.166 60.6389 25.8203 61.4735 25.8203 62.3438V67.8125H23.6328V62.3438C23.6346 60.8939 24.2113 59.5039 25.2365 58.4787C26.2617 57.4535 27.6517 56.8767 29.1016 56.875H42.2266C43.6764 56.8767 45.0664 57.4535 46.0916 58.4787C47.1168 59.5039 47.6936 60.8939 47.6953 62.3438V67.8125ZM58.6328 61.25H48.7891V59.0625H57.5391V55.9869L54.19 47.4294L56.2277 46.6331L59.6522 55.3831C59.7015 55.51 59.7268 55.6451 59.7266 55.7812V60.1562C59.7266 60.4463 59.6113 60.7245 59.4062 60.9296C59.2011 61.1348 58.9229 61.25 58.6328 61.25ZM22.5391 61.25H12.6953C12.4052 61.25 12.127 61.1348 11.9219 60.9296C11.7168 60.7245 11.6016 60.4463 11.6016 60.1562V55.7812C11.6014 55.6451 11.6266 55.51 11.6759 55.3831L15.1005 46.6331L17.1392 47.4294L13.7891 55.9869V59.0625H22.5391V61.25Z" fill="white"/>
<path d="M66.2891 30.625H64.1016V3.28125H7.22656V30.625H5.03906V2.1875C5.03906 1.89742 5.1543 1.61922 5.35941 1.4141C5.56453 1.20898 5.84273 1.09375 6.13281 1.09375H65.1953C65.4854 1.09375 65.7636 1.20898 65.9687 1.4141C66.1738 1.61922 66.2891 1.89742 66.2891 2.1875V30.625Z" fill="white"/>
<path d="M24.4059 23.7421L22.8594 22.1956L30.5156 14.5393C30.7207 14.3343 30.9989 14.2191 31.2889 14.2191C31.5789 14.2191 31.8571 14.3343 32.0622 14.5393L37.8514 20.3285L51.2969 6.88306L52.8434 8.42962L38.6247 22.6484C38.4196 22.8534 38.1414 22.9686 37.8514 22.9686C37.5614 22.9686 37.2832 22.8534 37.0781 22.6484L31.2889 16.8591L24.4059 23.7421Z" fill="white"/>
<path d="M53.1641 14.2188H50.9766V8.75H45.5078V6.5625H52.0703C52.3604 6.5625 52.6386 6.67773 52.8437 6.88285C53.0488 7.08797 53.1641 7.36617 53.1641 7.65625V14.2188ZM12.6953 6.5625H25.8203V8.75H12.6953V6.5625ZM12.6953 10.9375H20.3516V13.125H12.6953V10.9375Z" fill="white"/>
</svg>
