<svg width="71" height="70" viewBox="0 0 71 70" fill="none" xmlns="http://www.w3.org/2000/svg">
<path d="M62.3637 6.19751H8.31601C5.04844 6.19751 2.39062 8.85669 2.39062 12.1243V57.8758C2.39062 61.1434 5.04844 63.8012 8.31601 63.8012H62.3623C65.6299 63.8012 68.2877 61.1434 68.2877 57.8758V12.1243C68.2891 8.85669 65.6312 6.19751 62.3637 6.19751ZM8.31601 7.83813H62.3623C64.7248 7.83813 66.6471 9.7604 66.6471 12.1229V16.0522H4.03125V12.1243C4.03125 9.76177 5.95351 7.83813 8.31601 7.83813ZM62.3637 62.162H8.31601C5.95351 62.162 4.03125 60.2383 4.03125 57.8758V17.6928H66.6484V57.8758C66.6484 60.2383 64.7262 62.162 62.3637 62.162ZM10.6854 11.9452C10.6854 11.4926 11.0531 11.1249 11.5057 11.1249H12.6268C13.0793 11.1249 13.4471 11.4926 13.4471 11.9452C13.4471 12.3977 13.0793 12.7655 12.6268 12.7655H11.5057C11.0518 12.7655 10.6854 12.3991 10.6854 11.9452ZM15.342 11.9452C15.342 11.4926 15.7098 11.1249 16.1623 11.1249H17.2834C17.7359 11.1249 18.1037 11.4926 18.1037 11.9452C18.1037 12.3977 17.7359 12.7655 17.2834 12.7655H16.1623C15.7084 12.7655 15.342 12.3991 15.342 11.9452ZM19.9973 11.9452C19.9973 11.4926 20.365 11.1249 20.8176 11.1249H21.9387C22.3912 11.1249 22.759 11.4926 22.759 11.9452C22.759 12.3977 22.3912 12.7655 21.9387 12.7655H20.8176C20.365 12.7655 19.9973 12.3991 19.9973 11.9452ZM11.6273 30.6415C6.50723 35.7616 6.50723 44.0932 11.6273 49.2133C14.1881 51.7727 17.55 53.0538 20.9133 53.0538C24.2766 53.0538 27.6385 51.7741 30.1992 49.2133C35.3193 44.0932 35.3193 35.7616 30.1992 30.6415C25.0791 25.5213 16.7475 25.5213 11.6273 30.6415ZM13.9105 49.0342C14.4902 46.2411 16.9744 44.1862 19.8674 44.1862H21.9619C24.8549 44.1862 27.3391 46.2411 27.9187 49.0342C23.8035 52.202 18.023 52.202 13.9105 49.0342ZM20.9133 42.1163C18.9227 42.1163 17.3025 40.4961 17.3025 38.5055C17.3025 36.5149 18.9227 34.8948 20.9133 34.8948C22.9039 34.8948 24.524 36.5149 24.524 38.5055C24.524 40.4961 22.9039 42.1163 20.9133 42.1163ZM29.2791 47.801C28.4478 45.3428 26.4176 43.4629 23.9266 42.8026C25.2787 41.851 26.166 40.2801 26.166 38.5055C26.166 35.6098 23.8104 33.2542 20.9146 33.2542C18.0189 33.2542 15.6633 35.6098 15.6633 38.5055C15.6633 40.2815 16.5492 41.8524 17.9027 42.8026C15.4117 43.4616 13.3814 45.3428 12.5502 47.801C8.31465 43.303 8.39258 36.2004 12.7895 31.8022C17.2697 27.3233 24.5609 27.3219 29.0398 31.8022C33.4367 36.2004 33.5146 43.303 29.2791 47.801ZM62.8982 31.6559C62.8982 32.1084 62.5305 32.4762 62.0779 32.4762H42.0527C41.6002 32.4762 41.2324 32.1084 41.2324 31.6559C41.2324 31.2034 41.6002 30.8356 42.0527 30.8356H62.0779C62.5305 30.8356 62.8982 31.202 62.8982 31.6559ZM62.8982 39.9274C62.8982 40.3799 62.5305 40.7477 62.0779 40.7477H42.0527C41.6002 40.7477 41.2324 40.3799 41.2324 39.9274C41.2324 39.4749 41.6002 39.1071 42.0527 39.1071H62.0779C62.5305 39.1071 62.8982 39.4749 62.8982 39.9274ZM57.6551 48.1989C57.6551 48.6514 57.2873 49.0192 56.8348 49.0192H42.0527C41.6002 49.0192 41.2324 48.6514 41.2324 48.1989C41.2324 47.7463 41.6002 47.3786 42.0527 47.3786H56.8348C57.2873 47.3786 57.6551 47.7463 57.6551 48.1989Z" fill="white"/>
</svg>
