<svg width="71" height="70" viewBox="0 0 71 70" fill="none" xmlns="http://www.w3.org/2000/svg">
<path d="M61.9722 28.6231C61.448 28.0859 61.0547 27.4351 60.8229 26.7213C60.591 26.0074 60.5268 25.2498 60.6352 24.5071L60.8312 23.1211C61.4192 18.9701 58.6472 15.1481 54.5172 14.4271L53.1382 14.1821C52.3991 14.0549 51.6992 13.7596 51.0923 13.319C50.4855 12.8785 49.988 12.3044 49.6382 11.6411L48.9802 10.4091C47.0132 6.70609 42.5262 5.24309 38.7602 7.09109L37.5002 7.70009C36.8273 8.03168 36.0873 8.20414 35.3372 8.20414C34.5871 8.20414 33.847 8.03168 33.1742 7.70009L31.9212 7.08409C30.1214 6.19501 28.0455 6.04433 26.1362 6.66419C24.2269 7.28405 22.6354 8.62539 21.7012 10.4021L21.0432 11.6341C20.6936 12.2976 20.1962 12.8719 19.5893 13.3125C18.9824 13.7531 18.2823 14.0482 17.5432 14.1751L16.1642 14.4201C12.0342 15.1411 9.26216 18.9631 9.85016 23.1141L10.0462 24.5001C10.2632 26.0191 9.77316 27.5171 8.70916 28.6161L7.73616 29.6171C6.33266 31.0532 5.54688 32.9815 5.54688 34.9896C5.54687 36.9976 6.33266 38.926 7.73616 40.3621L8.70916 41.3701C9.2333 41.9073 9.62657 42.5581 9.85845 43.2719C10.0903 43.9857 10.1546 44.7434 10.0462 45.4861L9.85016 46.8721C9.55978 48.8586 10.0576 50.88 11.2374 52.5044C12.4171 54.1288 14.1853 55.2276 16.1642 55.5661L17.5432 55.8111C19.0482 56.0771 20.3292 57.0011 21.0432 58.3521L21.7012 59.5841C23.0942 62.2021 25.7402 63.7001 28.5122 63.7001C29.6532 63.7001 30.8222 63.4411 31.9212 62.9021L33.1742 62.3001C33.847 61.9685 34.5871 61.796 35.3372 61.796C36.0873 61.796 36.8273 61.9685 37.5002 62.3001L38.7532 62.9161C42.5192 64.7571 47.0062 63.3011 48.9732 59.5981L49.6312 58.3661C49.9807 57.7026 50.4781 57.1283 51.085 56.6877C51.6919 56.2471 52.392 55.9519 53.1312 55.8251L54.5102 55.5801C58.6402 54.8591 61.4122 51.0371 60.8242 46.8861L60.6282 45.5001C60.4112 43.9811 60.9012 42.4831 61.9652 41.3841L62.9382 40.3831C65.8572 37.3731 65.8572 32.6481 62.9382 29.6381L61.9722 28.6231ZM60.9292 38.4301L59.9562 39.4311C59.1356 40.2745 58.5196 41.2949 58.1555 42.4138C57.7914 43.5328 57.689 44.7204 57.8562 45.8851L58.0522 47.2711C58.2375 48.5377 57.9203 49.8266 57.1682 50.8624C56.4162 51.8983 55.2889 52.5991 54.0272 52.8151L52.6482 53.0601C50.2822 53.4731 48.2802 54.9291 47.1602 57.0501L46.5022 58.2821C45.907 59.4156 44.8925 60.2718 43.675 60.668C42.4576 61.0643 41.1335 60.9692 39.9852 60.4031L38.7322 59.7871C37.6764 59.2656 36.5147 58.9943 35.3372 58.9943C34.1596 58.9943 32.9979 59.2656 31.9422 59.7871L30.6892 60.4031C29.5411 60.9708 28.2164 61.0668 26.9985 60.6704C25.7806 60.274 24.7661 59.4168 24.1722 58.2821L23.5142 57.0501C22.966 56.0092 22.1861 55.1081 21.2346 54.4163C20.2831 53.7245 19.1854 53.2605 18.0262 53.0601L16.6472 52.8151C15.3854 52.5991 14.2581 51.8983 13.5061 50.8624C12.754 49.8266 12.4368 48.5377 12.6222 47.2711L12.8182 45.8851C13.1542 43.5051 12.3912 41.1531 10.7182 39.4311L9.74516 38.4231C8.84994 37.5072 8.34872 36.2773 8.34872 34.9966C8.34872 33.7159 8.84994 32.486 9.74516 31.5701L10.7182 30.5691C12.3842 28.8471 13.1542 26.4881 12.8182 24.1151L12.6222 22.7291C12.4368 21.4625 12.754 20.1736 13.5061 19.1377C14.2581 18.1019 15.3854 17.4011 16.6472 17.1851L18.0262 16.9401C20.3922 16.5271 22.3942 15.0711 23.5142 12.9501L24.1722 11.7181C24.5875 10.9264 25.2114 10.2634 25.9763 9.80076C26.7413 9.33809 27.6182 9.09338 28.5122 9.09309C29.2402 9.09309 29.9822 9.25409 30.6892 9.59709L31.9422 10.2131C34.0982 11.2701 36.5762 11.2701 38.7322 10.2131L39.9852 9.59709C41.1332 9.02934 42.4579 8.93339 43.6758 9.32977C44.8937 9.72614 45.9082 10.5834 46.5022 11.7181L47.1602 12.9501C48.2872 15.0711 50.2892 16.5271 52.6482 16.9401L54.0272 17.1851C56.6592 17.6471 58.4302 20.0831 58.0522 22.7291L57.8562 24.1151C57.5202 26.4951 58.2832 28.8471 59.9562 30.5691L60.9292 31.5771C61.8244 32.493 62.3256 33.7229 62.3256 35.0036C62.3256 36.2843 61.8244 37.5142 60.9292 38.4301Z" fill="white"/>
<path d="M46.4733 23.8631C45.9273 23.3171 45.0383 23.3171 44.4923 23.8631L24.1993 44.1561C24.0037 44.352 23.8704 44.6015 23.8162 44.873C23.7621 45.1445 23.7895 45.426 23.8951 45.682C24.0006 45.938 24.1795 46.157 24.4093 46.3115C24.6391 46.4659 24.9094 46.549 25.1863 46.5501C25.5433 46.5501 25.9003 46.4101 26.1733 46.1371L46.4663 25.8441C47.0193 25.2981 47.0193 24.4091 46.4733 23.8631ZM29.6453 31.2971C31.1713 31.2971 32.6903 30.7161 33.8523 29.5541C36.1693 27.2371 36.1693 23.4571 33.8523 21.1401C31.5353 18.8231 27.7553 18.8231 25.4383 21.1401C24.3113 22.2601 23.6953 23.7581 23.6953 25.3471C23.6953 26.9361 24.3113 28.4341 25.4383 29.5541C25.9899 30.1077 26.6456 30.5468 27.3677 30.8459C28.0897 31.1451 28.8638 31.2984 29.6453 31.2971ZM27.4193 23.1211C28.0353 22.5051 28.8403 22.1971 29.6453 22.1971C30.4503 22.1971 31.2553 22.5051 31.8713 23.1211C32.4597 23.7125 32.7899 24.5128 32.7899 25.3471C32.7899 26.1813 32.4597 26.9817 31.8713 27.5731C30.6393 28.7981 28.6443 28.7981 27.4193 27.5731C26.8243 26.9781 26.4953 26.1871 26.4953 25.3471C26.4953 24.5071 26.8243 23.7161 27.4193 23.1211ZM36.8203 40.4461C34.5033 42.7631 34.5033 46.5431 36.8203 48.8601C37.9823 50.0221 39.5013 50.6031 41.0273 50.6031C42.5533 50.6031 44.0723 50.0221 45.2343 48.8601C46.3613 47.7331 46.9773 46.2421 46.9773 44.6531C46.9773 43.0641 46.3613 41.5661 45.2343 40.4461C42.9173 38.1221 39.1443 38.1221 36.8203 40.4461ZM43.2533 46.8791C42.0283 48.1041 40.0263 48.1041 38.8013 46.8791C37.5763 45.6541 37.5763 43.6521 38.8013 42.4271C39.4173 41.8111 40.2223 41.5031 41.0273 41.5031C41.8323 41.5031 42.6373 41.8111 43.2533 42.4271C43.8483 43.0221 44.1773 43.8131 44.1773 44.6531C44.1773 45.4931 43.8483 46.2841 43.2533 46.8791Z" fill="white"/>
</svg>
