<svg width="32" height="32" viewBox="0 0 32 32" fill="none" xmlns="http://www.w3.org/2000/svg">
<g clip-path="url(#clip0_7560_75336)">
<path d="M28.0026 6.66667C26.5226 6.2 24.8959 6 23.3359 6C20.7359 6 17.9359 6.53333 16.0026 8C14.0693 6.53333 11.2693 6 8.66927 6C6.06927 6 3.26927 6.53333 1.33594 8V27.5333C1.33594 27.8667 1.66927 28.2 2.0026 28.2C2.13594 28.2 2.2026 28.1333 2.33594 28.1333C4.13594 27.2667 6.73594 26.6667 8.66927 26.6667C11.2693 26.6667 14.0693 27.2 16.0026 28.6667C17.8026 27.5333 21.0693 26.6667 23.3359 26.6667C25.5359 26.6667 27.8026 27.0667 29.6693 28.0667C29.8026 28.1333 29.8693 28.1333 30.0026 28.1333C30.3359 28.1333 30.6693 27.8 30.6693 27.4667V8C29.8693 7.4 29.0026 7 28.0026 6.66667ZM28.0026 24.6667C26.5359 24.2 24.9359 24 23.3359 24C21.0693 24 17.8026 24.8667 16.0026 26V10.6667C17.8026 9.53333 21.0693 8.66667 23.3359 8.66667C24.9359 8.66667 26.5359 8.86667 28.0026 9.33333V24.6667Z" fill="#004290"/>
<path d="M23.3359 14C24.5093 14 25.6426 14.12 26.6693 14.3467V12.32C25.6159 12.12 24.4826 12 23.3359 12C21.0693 12 19.0159 12.3867 17.3359 13.1067V15.32C18.8426 14.4667 20.9359 14 23.3359 14Z" fill="#004290"/>
<path d="M17.3359 16.6533V18.8666C18.8426 18.0133 20.9359 17.5466 23.3359 17.5466C24.5093 17.5466 25.6426 17.6666 26.6693 17.8933V15.8666C25.6159 15.6666 24.4826 15.5466 23.3359 15.5466C21.0693 15.5466 19.0159 15.9466 17.3359 16.6533Z" fill="#004290"/>
<path d="M23.3359 19.1094C21.0693 19.1094 19.0159 19.496 17.3359 20.216V22.4294C18.8426 21.576 20.9359 21.1094 23.3359 21.1094C24.5093 21.1094 25.6426 21.2294 26.6693 21.456V19.4294C25.6159 19.216 24.4826 19.1094 23.3359 19.1094Z" fill="#004290"/>
</g>
<defs>
<clipPath id="clip0_7560_75336">
<rect width="32" height="32" fill="white"/>
</clipPath>
</defs>
</svg>
