<svg width="32" height="32" viewBox="0 0 32 32" fill="none" xmlns="http://www.w3.org/2000/svg">
<path d="M9.33594 14.6641H12.0026V17.3307H9.33594V14.6641ZM9.33594 19.9974H12.0026V22.6641H9.33594V19.9974ZM14.6693 14.6641H17.3359V17.3307H14.6693V14.6641ZM14.6693 19.9974H17.3359V22.6641H14.6693V19.9974ZM20.0026 14.6641H22.6693V17.3307H20.0026V14.6641ZM20.0026 19.9974H22.6693V22.6641H20.0026V19.9974Z" fill="#004290"/>
<path d="M6.66667 29.3307H25.3333C26.804 29.3307 28 28.1347 28 26.6641V7.9974C28 6.52673 26.804 5.33073 25.3333 5.33073H22.6667V2.66406H20V5.33073H12V2.66406H9.33333V5.33073H6.66667C5.196 5.33073 4 6.52673 4 7.9974V26.6641C4 28.1347 5.196 29.3307 6.66667 29.3307ZM25.3333 10.6641L25.3347 26.6641H6.66667V10.6641H25.3333Z" fill="#004290"/>
</svg>
