<svg width="26" height="26" viewBox="0 0 26 26" fill="none" xmlns="http://www.w3.org/2000/svg">
<path d="M13.0052 0.166748C10.467 0.166748 7.98583 0.91941 5.8754 2.32955C3.76497 3.7397 2.12008 5.74399 1.14876 8.08898C0.177436 10.434 -0.0767073 13.0143 0.41847 15.5037C0.913647 17.9932 2.1359 20.2798 3.93068 22.0746C5.72545 23.8694 8.01213 25.0917 10.5016 25.5868C12.991 26.082 15.5713 25.8279 17.9163 24.8565C20.2613 23.8852 22.2656 22.2403 23.6757 20.1299C25.0859 18.0195 25.8385 15.5383 25.8385 13.0001C25.8345 9.5977 24.4812 6.33583 22.0753 3.92998C19.6695 1.52413 16.4076 0.170762 13.0052 0.166748ZM17.33 17.3249C17.1113 17.5436 16.8146 17.6665 16.5052 17.6665C16.1959 17.6665 15.8992 17.5436 15.6804 17.3249L12.1804 13.8249C11.9616 13.6062 11.8386 13.3095 11.8385 13.0001V6.00008C11.8385 5.69066 11.9615 5.39392 12.1803 5.17512C12.399 4.95633 12.6958 4.83342 13.0052 4.83342C13.3146 4.83342 13.6114 4.95633 13.8302 5.17512C14.049 5.39392 14.1719 5.69066 14.1719 6.00008V12.5171L17.33 15.6752C17.5488 15.894 17.6716 16.1907 17.6716 16.5001C17.6716 16.8094 17.5488 17.1061 17.33 17.3249Z" fill="#004290"/>
</svg>
