<svg width="40" height="40" viewBox="0 0 40 40" fill="none" xmlns="http://www.w3.org/2000/svg">
<path d="M19.6594 28.4905L19.5341 28.6158L19.3962 28.4905C13.4425 23.0883 9.50681 19.5161 9.50681 15.8937C9.50681 13.3869 11.3869 11.5068 13.8937 11.5068C15.824 11.5068 17.7041 12.7602 18.3684 14.4649H20.6997C21.364 12.7602 23.2441 11.5068 25.1744 11.5068C27.6812 11.5068 29.5613 13.3869 29.5613 15.8937C29.5613 19.5161 25.6256 23.0883 19.6594 28.4905ZM25.1744 9C22.9935 9 20.9003 10.0153 19.5341 11.6071C18.1678 10.0153 16.0747 9 13.8937 9C10.0332 9 7 12.0207 7 15.8937C7 20.6191 11.2616 24.4921 17.7166 30.3455L19.5341 32L21.3515 30.3455C27.8065 24.4921 32.0681 20.6191 32.0681 15.8937C32.0681 12.0207 29.0349 9 25.1744 9Z" fill="#004290"/>
<path d="M19.6594 28.4905L19.5341 28.6158L19.3962 28.4905C13.4425 23.0883 9.50681 19.5161 9.50681 15.8937C9.50681 13.3869 11.3869 11.5068 13.8937 11.5068C15.824 11.5068 17.7041 12.7602 18.3684 14.4649H20.6997C21.364 12.7602 23.2441 11.5068 25.1744 11.5068C27.6812 11.5068 29.5613 13.3869 29.5613 15.8937C29.5613 19.5161 25.6256 23.0883 19.6594 28.4905Z" fill="#004290"/>
</svg>
