<svg width="40" height="40" viewBox="0 0 40 40" fill="none" xmlns="http://www.w3.org/2000/svg">
<path d="M11.4 31.6187C9.86 31.6187 8.614 32.8787 8.614 34.4187C8.614 35.9587 9.86 37.2188 11.4 37.2188C12.94 37.2188 14.2 35.9587 14.2 34.4187C14.2 32.8787 12.94 31.6187 11.4 31.6187ZM3 9.21875V12.0187H5.8L10.84 22.6447L8.95 26.0747C8.726 26.4667 8.6 26.9287 8.6 27.4187C8.6 28.9587 9.86 30.2188 11.4 30.2188H28.2V27.4187H11.988C11.792 27.4187 11.638 27.2647 11.638 27.0688L11.68 26.9007L12.94 24.6187H23.37C24.42 24.6187 25.344 24.0448 25.82 23.1768L30.832 14.0907C30.944 13.8948 31 13.6567 31 13.4187C31 12.6487 30.37 12.0187 29.6 12.0187H8.894L7.578 9.21875H3ZM25.4 31.6187C23.86 31.6187 22.614 32.8787 22.614 34.4187C22.614 35.9587 23.86 37.2188 25.4 37.2188C26.94 37.2188 28.2 35.9587 28.2 34.4187C28.2 32.8787 26.94 31.6187 25.4 31.6187Z" fill="#004290"/>
</svg>
