<svg width="40" height="40" viewBox="0 0 40 40" fill="none" xmlns="http://www.w3.org/2000/svg">
<path d="M19.9974 6.66406C21.7655 6.66406 23.4612 7.36644 24.7114 8.61668C25.9617 9.86693 26.6641 11.5626 26.6641 13.3307C26.6641 15.0988 25.9617 16.7945 24.7114 18.0448C23.4612 19.295 21.7655 19.9974 19.9974 19.9974C18.2293 19.9974 16.5336 19.295 15.2833 18.0448C14.0331 16.7945 13.3307 15.0988 13.3307 13.3307C13.3307 11.5626 14.0331 9.86693 15.2833 8.61668C16.5336 7.36644 18.2293 6.66406 19.9974 6.66406ZM19.9974 23.3307C27.3641 23.3307 33.3307 26.3141 33.3307 29.9974V33.3307H6.66406V29.9974C6.66406 26.3141 12.6307 23.3307 19.9974 23.3307Z" fill="#004290"/>
</svg>
