<svg width="25" height="24" viewBox="0 0 25 24" fill="none" xmlns="http://www.w3.org/2000/svg">
<path d="M12.625 20.1875L12.5 20.3125L12.3625 20.1875C6.425 14.8 2.5 11.2375 2.5 7.625C2.5 5.125 4.375 3.25 6.875 3.25C8.8 3.25 10.675 4.5 11.3375 6.2H13.6625C14.325 4.5 16.2 3.25 18.125 3.25C20.625 3.25 22.5 5.125 22.5 7.625C22.5 11.2375 18.575 14.8 12.625 20.1875ZM18.125 0.75C15.95 0.75 13.8625 1.7625 12.5 3.35C11.1375 1.7625 9.05 0.75 6.875 0.75C3.025 0.75 0 3.7625 0 7.625C0 12.3375 4.25 16.2 10.6875 22.0375L12.5 23.6875L14.3125 22.0375C20.75 16.2 25 12.3375 25 7.625C25 3.7625 21.975 0.75 18.125 0.75Z" fill="#004290"/>
</svg>
