<svg width="48" height="48" viewBox="0 0 48 48" fill="none" xmlns="http://www.w3.org/2000/svg">
<g clip-path="url(#clip0_7560_75503)">
<rect width="48" height="48" rx="10" fill="#0062AE"/>
<path d="M30.4408 27.8679H29.0858L28.6055 27.4048C30.2864 25.4494 31.2985 22.9108 31.2985 20.1492C31.2985 13.9914 26.307 9 20.1492 9C13.9914 9 9 13.9914 9 20.1492C9 26.307 13.9914 31.2985 20.1492 31.2985C22.9108 31.2985 25.4494 30.2864 27.4048 28.6055L27.8679 29.0858V30.4408L36.4443 39L39 36.4443L30.4408 27.8679ZM20.1492 27.8679C15.8782 27.8679 12.4305 24.4202 12.4305 20.1492C12.4305 15.8782 15.8782 12.4305 20.1492 12.4305C24.4202 12.4305 27.8679 15.8782 27.8679 20.1492C27.8679 24.4202 24.4202 27.8679 20.1492 27.8679Z" fill="white"/>
<path d="M24 20.8H20.8V24H19.2V20.8H16V19.2H19.2V16H20.8V19.2H24V20.8Z" fill="white"/>
</g>
<defs>
<clipPath id="clip0_7560_75503">
<rect width="48" height="48" rx="10" fill="white"/>
</clipPath>
</defs>
</svg>
